<svg width="800" height="450" viewBox="0 0 800 450" fill="none" xmlns="http://www.w3.org/2000/svg">
  <rect width="800" height="450" rx="16" fill="#1e0a3c" />
  <g opacity="0.08">
    <circle cx="150" cy="100" r="180" fill="#c084fc" />
    <circle cx="680" cy="360" r="150" fill="#f472b6" />
  </g>
  <rect x="60" y="55" width="90" height="38" rx="8" fill="#c084fc" opacity="0.25" />
  <text x="68" y="80" fill="#c084fc" font-size="14" font-weight="700" font-family="system-ui">STYLE</text>
  <rect x="165" y="55" width="90" height="38" rx="8" fill="#f472b6" opacity="0.2" />
  <text x="175" y="80" fill="#f472b6" font-size="14" font-weight="700" font-family="system-ui">TRANSFER</text>
  <rect x="60" y="115" width="280" height="22" rx="10" fill="#c084fc" opacity="0.35" />
  <rect x="60" y="150" width="200" height="14" rx="7" fill="#c084fc" opacity="0.25" />
  <rect x="60" y="180" width="240" height="14" rx="7" fill="#c084fc" opacity="0.2" />
  <rect x="60" y="230" width="130" height="44" rx="22" fill="url(#btn1)" />
  <text x="80" y="258" fill="#fff" font-size="14" font-weight="800" font-family="system-ui">Transform</text>
  <rect x="210" y="230" width="130" height="44" rx="22" fill="#c084fc" opacity="0.4" />
  <text x="228" y="258" fill="#c084fc" font-size="14" font-weight="700" font-family="system-ui" opacity="0.8">Gallery</text>
  <defs>
    <linearGradient id="btn1" x1="0" y1="0" x2="1" y2="0">
      <stop offset="0%" stop-color="#c084fc" />
      <stop offset="100%" stop-color="#f472b6" />
    </linearGradient>
  </defs>
  <g transform="translate(460, 100)">
    <rect width="280" height="180" rx="14" fill="#c084fc" opacity="0.05" />
    <rect width="280" height="180" rx="14" fill="none" stroke="#c084fc" stroke-width="1.5" opacity="0.25" />
    <circle cx="70" cy="90" r="55" fill="url(#btn1)" opacity="0.3" />
    <circle cx="140" cy="70" r="45" fill="#f472b6" opacity="0.25" />
    <circle cx="210" cy="110" r="50" fill="#c084fc" opacity="0.2" />
    <circle cx="70" cy="90" r="20" fill="none" stroke="#fff" stroke-width="2" opacity="0.4" />
    <circle cx="140" cy="70" r="20" fill="none" stroke="#fff" stroke-width="2" opacity="0.3" />
    <circle cx="210" cy="110" r="20" fill="none" stroke="#fff" stroke-width="2" opacity="0.25" />
  </g>
  <rect x="60" y="320" width="680" height="100" rx="12" fill="#c084fc" opacity="0.06" />
  <rect x="80" y="338" width="220" height="10" rx="5" fill="#c084fc" opacity="0.45" />
  <rect x="80" y="358" width="170" height="10" rx="5" fill="#c084fc" opacity="0.3" />
  <rect x="80" y="378" width="280" height="10" rx="5" fill="#c084fc" opacity="0.2" />
  <text x="60" y="110" fill="#c084fc" font-size="22" font-weight="700" font-family="system-ui">ArtFusion AI</text>
</svg>
