<svg width="800" height="450" viewBox="0 0 800 450" fill="none" xmlns="http://www.w3.org/2000/svg">
  <rect width="800" height="450" rx="16" fill="#0a2a14" />
  <g opacity="0.08">
    <circle cx="100" cy="80" r="160" fill="#34d399" />
    <circle cx="700" cy="380" r="180" fill="#10b981" />
  </g>
  <rect x="60" y="55" width="100" height="38" rx="8" fill="#34d399" opacity="0.25" />
  <text x="72" y="80" fill="#34d399" font-size="16" font-weight="700" font-family="monospace, system-ui">&lt;/&gt;</text>
  <rect x="175" y="55" width="120" height="38" rx="8" fill="#10b981" opacity="0.15" />
  <text x="185" y="80" fill="#10b981" font-size="14" font-weight="600" font-family="system-ui" opacity="0.7">CodeNation</text>
  <rect x="60" y="115" width="280" height="22" rx="10" fill="#34d399" opacity="0.35" />
  <rect x="60" y="150" width="200" height="14" rx="7" fill="#34d399" opacity="0.25" />
  <rect x="60" y="180" width="250" height="14" rx="7" fill="#34d399" opacity="0.2" />
  <rect x="60" y="230" width="100" height="44" rx="22" fill="#34d399" />
  <text x="72" y="258" fill="#0a2a14" font-size="14" font-weight="800" font-family="monospace, system-ui">Run</text>
  <rect x="175" y="230" width="100" height="44" rx="22" fill="#34d399" opacity="0.4" />
  <text x="187" y="258" fill="#34d399" font-size="14" font-weight="700" font-family="monospace, system-ui" opacity="0.8">Submit</text>
  <rect x="420" y="90" width="320" height="200" rx="14" fill="#34d399" opacity="0.05" />
  <rect x="420" y="90" width="320" height="200" rx="14" fill="none" stroke="#34d399" stroke-width="1.5" opacity="0.25" />
  <text x="440" y="120" fill="#34d399" font-size="13" font-weight="600" font-family="monospace, system-ui" opacity="0.7">// Problem: Two Sum</text>
  <text x="440" y="145" fill="#34d399" font-size="13" font-weight="400" font-family="monospace, system-ui" opacity="0.6">class Solution {</text>
  <text x="455" y="168" fill="#34d399" font-size="13" font-weight="400" font-family="monospace, system-ui" opacity="0.5">public int[] twoSum(...)</text>
  <text x="470" y="191" fill="#34d399" font-size="13" font-weight="400" font-family="monospace, system-ui" opacity="0.4">Map&lt;Integer, Integer&gt; map</text>
  <text x="455" y="214" fill="#34d399" font-size="13" font-weight="400" font-family="monospace, system-ui" opacity="0.5">return new int[]{...}</text>
  <text x="440" y="237" fill="#34d399" font-size="13" font-weight="400" font-family="monospace, system-ui" opacity="0.6">}</text>
  <rect x="440" y="255" width="80" height="24" rx="12" fill="#34d399" opacity="0.3" />
  <text x="452" y="272" fill="#34d399" font-size="11" font-weight="700" font-family="system-ui">Easy</text>
  <rect x="60" y="320" width="680" height="100" rx="12" fill="#34d399" opacity="0.06" />
  <rect x="80" y="338" width="220" height="10" rx="5" fill="#34d399" opacity="0.45" />
  <rect x="80" y="358" width="170" height="10" rx="5" fill="#34d399" opacity="0.3" />
  <rect x="80" y="378" width="280" height="10" rx="5" fill="#34d399" opacity="0.2" />
  <text x="60" y="110" fill="#34d399" font-size="22" font-weight="700" font-family="system-ui">CodeNation</text>
</svg>
