<svg width="800" height="450" viewBox="0 0 800 450" fill="none" xmlns="http://www.w3.org/2000/svg">
  <rect width="800" height="450" rx="16" fill="#140a2e" />
  <g opacity="0.08">
    <circle cx="150" cy="90" r="200" fill="#a78bfa" />
    <circle cx="680" cy="370" r="160" fill="#8b5cf6" />
  </g>
  <rect x="60" y="55" width="140" height="38" rx="8" fill="#a78bfa" opacity="0.25" />
  <text x="68" y="80" fill="#a78bfa" font-size="14" font-weight="700" font-family="system-ui">GENERATE</text>
  <rect x="215" y="55" width="80" height="38" rx="8" fill="#8b5cf6" opacity="0.2" />
  <text x="225" y="80" fill="#8b5cf6" font-size="14" font-weight="700" font-family="system-ui">IMAGE</text>
  <rect x="60" y="115" width="260" height="22" rx="10" fill="#a78bfa" opacity="0.35" />
  <rect x="60" y="150" width="180" height="14" rx="7" fill="#a78bfa" opacity="0.25" />
  <rect x="60" y="180" width="220" height="14" rx="7" fill="#a78bfa" opacity="0.2" />
  <rect x="60" y="230" width="130" height="44" rx="22" fill="url(#btn2)" />
  <text x="82" y="258" fill="#fff" font-size="14" font-weight="800" font-family="system-ui">Generate</text>
  <rect x="210" y="230" width="130" height="44" rx="22" fill="#a78bfa" opacity="0.4" />
  <text x="232" y="258" fill="#a78bfa" font-size="14" font-weight="700" font-family="system-ui" opacity="0.8">Samples</text>
  <defs>
    <linearGradient id="btn2" x1="0" y1="0" x2="1" y2="0">
      <stop offset="0%" stop-color="#a78bfa" />
      <stop offset="100%" stop-color="#8b5cf6" />
    </linearGradient>
  </defs>
  <g transform="translate(430, 90)">
    <rect width="310" height="200" rx="14" fill="#a78bfa" opacity="0.05" />
    <rect width="310" height="200" rx="14" fill="none" stroke="#a78bfa" stroke-width="1.5" opacity="0.25" stroke-dasharray="8 4" />
    <rect x="15" y="15" width="130" height="130" rx="10" fill="#a78bfa" opacity="0.12" />
    <rect x="15" y="15" width="130" height="130" rx="10" fill="none" stroke="#a78bfa" stroke-width="1" opacity="0.3" />
    <circle cx="80" cy="80" r="40" fill="#a78bfa" opacity="0.2" />
    <circle cx="80" cy="80" r="20" fill="#c4b5fd" opacity="0.3" />
    <circle cx="80" cy="80" r="8" fill="#fff" opacity="0.4" />
    <rect x="160" y="15" width="130" height="130" rx="10" fill="#8b5cf6" opacity="0.12" />
    <rect x="160" y="15" width="130" height="130" rx="10" fill="none" stroke="#8b5cf6" stroke-width="1" opacity="0.3" />
    <circle cx="225" cy="80" r="35" fill="#8b5cf6" opacity="0.2" />
    <circle cx="225" cy="80" r="18" fill="#c4b5fd" opacity="0.25" />
    <circle cx="225" cy="80" r="6" fill="#fff" opacity="0.3" />
    <rect x="90" y="160" width="120" height="24" rx="12" fill="#a78bfa" opacity="0.3" />
    <text x="110" y="177" fill="#a78bfa" font-size="12" font-weight="700" font-family="system-ui">Generated</text>
  </g>
  <rect x="60" y="320" width="680" height="100" rx="12" fill="#a78bfa" opacity="0.06" />
  <rect x="80" y="338" width="220" height="10" rx="5" fill="#a78bfa" opacity="0.45" />
  <rect x="80" y="358" width="170" height="10" rx="5" fill="#a78bfa" opacity="0.3" />
  <rect x="80" y="378" width="280" height="10" rx="5" fill="#a78bfa" opacity="0.2" />
  <text x="60" y="110" fill="#a78bfa" font-size="22" font-weight="700" font-family="system-ui">GenVision GAN</text>
</svg>
