<svg width="800" height="450" viewBox="0 0 800 450" fill="none" xmlns="http://www.w3.org/2000/svg">
  <rect width="800" height="450" rx="16" fill="#0a2e1a" />
  <g opacity="0.08">
    <circle cx="120" cy="80" r="180" fill="#22c55e" />
    <circle cx="680" cy="370" r="160" fill="#16a34a" />
  </g>
  <rect x="60" y="55" width="140" height="38" rx="8" fill="#22c55e" opacity="0.25" />
  <text x="68" y="80" fill="#22c55e" font-size="14" font-weight="700" font-family="system-ui">ATTENDANCE</text>
  <rect x="220" y="55" width="80" height="38" rx="8" fill="#22c55e" opacity="0.15" />
  <text x="232" y="80" fill="#22c55e" font-size="13" font-weight="600" font-family="system-ui" opacity="0.7">95%</text>
  <rect x="60" y="115" width="260" height="22" rx="10" fill="#22c55e" opacity="0.35" />
  <rect x="60" y="150" width="200" height="14" rx="7" fill="#22c55e" opacity="0.25" />
  <rect x="60" y="180" width="230" height="14" rx="7" fill="#22c55e" opacity="0.2" />
  <rect x="60" y="230" width="130" height="44" rx="22" fill="#22c55e" />
  <text x="80" y="258" fill="#0a2e1a" font-size="14" font-weight="800" font-family="system-ui">Mark Now</text>
  <rect x="210" y="230" width="130" height="44" rx="22" fill="#22c55e" opacity="0.4" />
  <text x="230" y="258" fill="#22c55e" font-size="14" font-weight="700" font-family="system-ui" opacity="0.8">Analytics</text>
  <rect x="420" y="90" width="320" height="200" rx="14" fill="#22c55e" opacity="0.06" />
  <rect x="420" y="90" width="320" height="200" rx="14" fill="none" stroke="#22c55e" stroke-width="1.5" opacity="0.3" />
  <rect x="440" y="110" width="100" height="14" rx="7" fill="#22c55e" opacity="0.4" />
  <circle cx="470" cy="170" r="40" fill="#22c55e" opacity="0.2" />
  <circle cx="470" cy="170" r="20" fill="#22c55e" opacity="0.35" />
  <circle cx="470" cy="170" r="8" fill="#22c55e" />
  <text x="530" y="165" fill="#22c55e" font-size="14" font-weight="600" font-family="system-ui">Face Detected</text>
  <text x="530" y="185" fill="#22c55e" font-size="13" font-weight="500" font-family="system-ui" opacity="0.7">Rudra Sahu • Present</text>
  <rect x="440" y="220" width="280" height="18" rx="9" fill="#22c55e" opacity="0.15" />
  <rect x="440" y="220" width="210" height="18" rx="9" fill="#22c55e" opacity="0.5" />
  <text x="530" y="234" fill="#fff" font-size="11" font-weight="700" font-family="system-ui">85% Engagement</text>
  <rect x="60" y="320" width="680" height="100" rx="12" fill="#22c55e" opacity="0.06" />
  <rect x="80" y="338" width="220" height="10" rx="5" fill="#22c55e" opacity="0.45" />
  <rect x="80" y="358" width="170" height="10" rx="5" fill="#22c55e" opacity="0.3" />
  <rect x="80" y="378" width="280" height="10" rx="5" fill="#22c55e" opacity="0.2" />
  <text x="60" y="110" fill="#22c55e" font-size="22" font-weight="700" font-family="system-ui">IntelliClass</text>
</svg>
