<svg width="800" height="450" viewBox="0 0 800 450" fill="none" xmlns="http://www.w3.org/2000/svg">
  <rect width="800" height="450" rx="16" fill="#0d2137" />
  <g opacity="0.08">
    <circle cx="100" cy="80" r="200" fill="#4ade80" />
    <circle cx="700" cy="380" r="180" fill="#4ade80" />
  </g>
  <rect x="60" y="55" width="130" height="38" rx="8" fill="#4ade80" opacity="0.25" />
  <text x="68" y="80" fill="#4ade80" font-size="16" font-weight="700" font-family="system-ui">ATS SCORE</text>
  <rect x="210" y="55" width="100" height="38" rx="8" fill="#4ade80" opacity="0.15" />
  <text x="222" y="80" fill="#4ade80" font-size="13" font-weight="600" font-family="system-ui" opacity="0.7">85%</text>
  <rect x="60" y="115" width="280" height="22" rx="10" fill="#4ade80" opacity="0.35" />
  <rect x="60" y="150" width="220" height="14" rx="7" fill="#4ade80" opacity="0.25" />
  <rect x="60" y="180" width="250" height="14" rx="7" fill="#4ade80" opacity="0.2" />
  <rect x="60" y="230" width="130" height="44" rx="22" fill="#4ade80" />
  <text x="78" y="258" fill="#0d2137" font-size="14" font-weight="800" font-family="system-ui">Analyze</text>
  <rect x="210" y="230" width="130" height="44" rx="22" fill="#4ade80" opacity="0.4" />
  <text x="228" y="258" fill="#4ade80" font-size="14" font-weight="700" font-family="system-ui" opacity="0.8">Improve</text>
  <rect x="420" y="100" width="320" height="180" rx="14" fill="#4ade80" opacity="0.06" />
  <rect x="420" y="100" width="320" height="180" rx="14" fill="none" stroke="#4ade80" stroke-width="1.5" opacity="0.3" />
  <rect x="440" y="120" width="280" height="40" rx="8" fill="#4ade80" opacity="0.15" />
  <text x="455" y="145" fill="#4ade80" font-size="13" font-weight="600" font-family="system-ui">Resume #1 - Score: 85%</text>
  <rect x="440" y="170" width="280" height="40" rx="8" fill="#4ade80" opacity="0.1" />
  <text x="455" y="195" fill="#4ade80" font-size="13" font-weight="600" font-family="system-ui">Resume #2 - Score: 72%</text>
  <rect x="440" y="220" width="280" height="40" rx="8" fill="#4ade80" opacity="0.07" />
  <text x="455" y="245" fill="#4ade80" font-size="13" font-weight="600" font-family="system-ui">Resume #3 - Score: 91%</text>
  <rect x="60" y="320" width="680" height="100" rx="12" fill="#4ade80" opacity="0.06" />
  <rect x="80" y="338" width="220" height="10" rx="5" fill="#4ade80" opacity="0.45" />
  <rect x="80" y="358" width="170" height="10" rx="5" fill="#4ade80" opacity="0.3" />
  <rect x="80" y="378" width="280" height="10" rx="5" fill="#4ade80" opacity="0.2" />
  <rect x="80" y="398" width="100" height="16" rx="8" fill="#4ade80" opacity="0.4" />
  <text x="60" y="110" fill="#4ade80" font-size="22" font-weight="700" font-family="system-ui">TalentLens AI</text>
</svg>
